<svg width="32" height="32" viewBox="0 0 32 32" fill="none" xmlns="http://www.w3.org/2000/svg">
<circle opacity="0.2" cx="16" cy="16" r="16" fill="#C4C4C4"/>
<mask id="mask0_257_604" style="mask-type:alpha" maskUnits="userSpaceOnUse" x="1" y="3" width="30" height="29">
<path d="M30.3704 31.2554L29.651 28.3777C29.3096 26.9817 28.2748 25.859 26.9111 25.4053L21.6351 23.6475C20.3485 23.1116 19.7598 21.0396 19.6327 20.253C20.613 19.4378 21.2438 18.278 21.3953 17.012C21.3737 16.7958 21.4247 16.5785 21.5404 16.3945C21.7273 16.3477 21.8804 16.2138 21.9516 16.0348C22.2969 15.1989 22.5135 14.3156 22.5944 13.4149C22.5945 13.366 22.5885 13.3172 22.5764 13.2699C22.4905 12.9199 22.2847 12.611 21.9948 12.3969V9.21829C21.9948 7.28664 21.4049 6.4941 20.7837 6.03485C20.6651 5.10443 19.6687 3.22314 15.9995 3.22314C12.7442 3.35421 10.1352 5.96313 10.0042 9.21834V12.397C9.71425 12.6111 9.50847 12.9199 9.42259 13.2699C9.41045 13.3173 9.40444 13.3661 9.4046 13.415C9.48532 14.3161 9.70199 15.1998 10.0473 16.0361C10.0993 16.2056 10.2354 16.3359 10.407 16.3802C10.4742 16.4138 10.6001 16.5877 10.6001 17.0122C10.7525 18.2817 11.387 19.4442 12.3724 20.2592C12.2465 21.0445 11.6613 23.1153 10.4107 23.638L5.088 25.4054C3.72538 25.859 2.69118 26.9806 2.34934 28.3754L1.62989 31.2531C1.54845 31.574 1.74259 31.9002 2.06352 31.9817C2.11147 31.9939 2.16076 32.0001 2.21022 32.0001H29.7889C30.12 32 30.3884 31.7315 30.3883 31.4004C30.3883 31.3515 30.3822 31.3028 30.3704 31.2554Z" fill="#455A64"/>
</mask>
<g mask="url(#mask0_257_604)">
<circle cx="16" cy="16" r="16" fill="#C4C4C4"/>
</g>
</svg>
